<?xml version="1.0" encoding="UTF-8" standalone="no"?>
<svg xmlns="http://www.w3.org/2000/svg" width="202.77029mm" height="70.000053mm" viewBox="0 0 202.77029 70.000053" version="1.1">
  <path d="m 126.26446,10.00001 v 50.00004 h 20.00033 V 10.00001 Z m 8.55245,33.97622 c 1.2192,0 2.15064,0.54156 2.6417,1.48983 0.79587,-0.9144 1.7272,-1.48983 3.06493,-1.48983 1.94734,0 3.13263,1.21917 3.13263,3.35277 v 6.01151 h -3.21738 v -4.9785 c 0,-0.99907 -0.49115,-1.52394 -1.25315,-1.52394 -0.762,0 -1.32085,0.52487 -1.32085,1.52394 v 4.9785 h -3.21737 v -4.9785 c 0,-0.99907 -0.49116,-1.52394 -1.25316,-1.52394 -0.762,0 -1.3038,0.52487 -1.3038,1.52394 v 4.9785 h -3.21737 v -9.16119 h 3.21737 v 1.25315 c 0.59267,-0.762 1.43952,-1.45624 2.72645,-1.45624 z" style="opacity:1;fill:#31b9ae;fill-opacity:1;fill-rule:evenodd;stroke:none;stroke-width:0.09853204;stroke-linecap:square;stroke-linejoin:miter;stroke-miterlimit:4;stroke-dasharray:none;stroke-dashoffset:0;stroke-opacity:1;paint-order:markers fill stroke"/>
  <path d="m 149.51761,10.00001 v 50.00004 h 19.99981 V 10.00001 Z m 5.46168,34.17931 h 3.21738 v 4.96145 c 0,0.99907 0.52486,1.54099 1.30379,1.54099 0.762,0 1.33791,-0.54192 1.33791,-1.54099 v -4.96145 h 3.21737 v 9.16119 h -3.21737 v -1.25315 c -0.59267,0.762 -1.43964,1.45624 -2.74351,1.45624 -1.94733,0 -3.11557,-1.28702 -3.11557,-3.36982 z" style="opacity:1;fill:#e0493b;fill-opacity:1;fill-rule:evenodd;stroke:none;stroke-width:0.09060598;stroke-linecap:square;stroke-linejoin:miter;stroke-miterlimit:4;stroke-dasharray:none;stroke-dashoffset:0;stroke-opacity:1;paint-order:markers fill stroke"/>
  <path d="M 33.253152,10.00001 V 60.00005 H 53.252964 V 10.00001 Z m 9.974582,31.28388 c 2.015067,0 3.589772,0.54164 4.876705,1.57458 l -1.642276,2.31975 c -1.083734,-0.762 -2.269311,-1.1684 -3.319177,-1.1684 -0.795867,0 -1.185458,0.33889 -1.185458,0.76222 v 0.0341 c 0,0.54187 0.406437,0.77882 2.04897,1.15135 2.726267,0.59267 4.419886,1.47298 4.419886,3.69125 v 0.0341 c 0,2.42146 -1.913805,3.86074 -4.792472,3.86074 -2.099733,0 -4.097398,-0.66035 -5.553665,-1.96422 L 39.909074,49.395 c 1.1684,0.93133 2.472094,1.42213 3.843694,1.42213 0.880534,0 1.354439,-0.30487 1.354439,-0.81287 v -0.0336 c 0,-0.49106 -0.389143,-0.76228 -1.99781,-1.13481 -2.523067,-0.57573 -4.47053,-1.28696 -4.47053,-3.72536 v -0.0336 c 0,-2.20134 1.744068,-3.79305 4.588867,-3.79305 z" style="opacity:1;fill:#31b9ae;fill-opacity:1;fill-rule:evenodd;stroke:none;stroke-width:0.09853204;stroke-linecap:square;stroke-linejoin:miter;stroke-miterlimit:4;stroke-dasharray:none;stroke-dashoffset:0;stroke-opacity:1;paint-order:markers fill stroke"/>
  <path d="m 56.505785,10.00001 v 50.00004 h 20.00033 V 10.00001 Z M 61.967983,40.979 h 3.217376 v 4.45347 c 0.592667,-0.762 1.439119,-1.45624 2.742986,-1.45624 1.947333,0 3.115571,1.28702 3.115571,3.36982 v 5.99446 h -3.217375 v -4.96145 c 0,-0.99907 -0.524743,-1.54099 -1.286743,-1.54099 -0.778933,0 -1.354439,0.54192 -1.354439,1.54099 v 4.96145 h -3.217376 z" style="opacity:1;fill:#e0493b;fill-opacity:1;fill-rule:evenodd;stroke:none;stroke-width:0.09060598;stroke-linecap:square;stroke-linejoin:miter;stroke-miterlimit:4;stroke-dasharray:none;stroke-dashoffset:0;stroke-opacity:1;paint-order:markers fill stroke"/>
  <path d="m 103.01182,10.00001 v 50.00004 h 19.99982 V 10.00001 Z m 10.07639,33.99327 c 1.33773,0 2.72613,0.38927 3.776,1.0666 l -1.10071,2.03192 c -0.94827,-0.52493 -1.98126,-0.84646 -2.7094,-0.84646 -0.49106,0 -0.74517,0.18628 -0.74517,0.44028 v 0.0336 c 0,0.3556 0.52515,0.525 1.49035,0.81287 1.81186,0.508 3.25096,1.13449 3.25096,2.91249 v 0.0341 c 0,2.01507 -1.50669,3.06493 -3.74189,3.06493 -1.54093,0 -3.06513,-0.44056 -4.33513,-1.35496 l 1.20199,-1.94716 c 1.04987,0.69426 2.20141,1.05006 3.14968,1.05006 0.5588,0 0.81287,-0.16971 0.81287,-0.49144 v -0.0336 c 0,-0.3556 -0.5081,-0.50783 -1.4733,-0.77876 -1.81186,-0.47414 -3.25096,-1.08381 -3.25096,-2.92954 v -0.0341 c 0,-1.94733 1.55804,-3.03082 3.67471,-3.03082 z" style="opacity:1;fill:#33bcdc;fill-opacity:1;fill-rule:evenodd;stroke:none;stroke-width:0.20972057;stroke-linecap:square;stroke-linejoin:miter;stroke-miterlimit:4;stroke-dasharray:none;stroke-dashoffset:0;stroke-opacity:1;paint-order:markers fill stroke"/>
  <path d="M 79.758927,10.00001 V 60.00005 H 99.758749 V 10.00001 Z m 9.999905,33.97622 c 3.166534,0 4.622462,2.31969 4.622462,5.01209 0,0.2032 4e-4,0.44029 -0.0165,0.66043 h -6.129858 c 0.254,0.99906 0.982206,1.5074 1.981276,1.5074 0.762,0 1.371524,-0.28826 2.031924,-0.93172 l 1.777668,1.47329 c -0.88054,1.1176 -2.150288,1.86293 -3.979092,1.86293 -2.878668,0 -4.910811,-1.91356 -4.910811,-4.75836 v -0.0341 c 0,-2.67546 1.913639,-4.79195 4.622971,-4.79195 z m 0.0171,2.37039 c -0.84667,0 -1.422822,0.66078 -1.592156,1.65985 h 3.18379 c -0.11853,-1.016 -0.711104,-1.65985 -1.591634,-1.65985 z" style="opacity:1;fill:#c5a407;fill-opacity:1;fill-rule:evenodd;stroke:none;stroke-width:0.20457777;stroke-linecap:square;stroke-linejoin:miter;stroke-miterlimit:4;stroke-dasharray:none;stroke-dashoffset:0;stroke-opacity:1;paint-order:markers fill stroke"/>
  <path d="M 10,10.00001 V 60.00005 H 30.00033 V 10.00001 Z m 3.199288,30.06018 12.947531,12.17031 c 1.574948,1.48075 -0.02091,2.6164 -1.34979,1.34876 l -3.223575,-3.04581 -2.030884,1.8557 C 16.93506,49.15302 13.651178,44.25481 13.199288,40.06019 Z" style="opacity:1;fill:#33bcdc;fill-opacity:1;fill-rule:evenodd;stroke:none;stroke-width:0.20972057;stroke-linecap:square;stroke-linejoin:miter;stroke-miterlimit:4;stroke-dasharray:none;stroke-dashoffset:0;stroke-opacity:1;paint-order:markers fill stroke"/>
  <path d="M 172.77049,10 V 60.00005 H 192.7703 V 10 Z m 12.50466,31.7562 c 0.94913,-0.0121 1.61333,0.94605 1.67174,1.82677 0.20094,1.36381 -0.42108,3.01012 -1.81127,3.47627 -0.16369,0.0433 -0.33793,0.0587 -0.50539,0.0269 -1.15448,-0.23565 -1.61745,-1.58711 -1.47278,-2.6386 0.099,-1.15869 0.78203,-2.47314 2.02468,-2.68769 h 0.093 z m -5.26789,0.0605 v 5.2e-4 c 0.11038,-0.003 0.22356,0.0102 0.34003,0.0408 1.27424,0.34499 1.91162,1.76405 1.94251,2.99103 0.043,0.93011 -0.39237,2.08244 -1.42006,2.25361 -0.14388,0.022 -0.29115,0.0182 -0.43357,-0.0124 -1.52048,-0.46153 -2.18409,-2.27467 -1.92598,-3.73413 0.12244,-0.73673 0.72438,-1.52034 1.49707,-1.53945 z m 8.63513,4.14497 c 0.96603,0.048 1.47791,1.103 1.38751,1.97197 -0.0405,1.31391 -1.01526,2.84074 -2.44429,2.85874 -1.02488,-0.0717 -1.50396,-1.2732 -1.32706,-2.17144 0.13063,-1.24532 1.04716,-2.57967 2.38384,-2.65927 z m -11.69955,0.29611 c 0.22253,0.002 0.44669,0.057 0.65009,0.17105 1.24853,0.61326 1.98647,2.18214 1.62729,3.53311 -0.16947,0.63153 -0.77011,1.15671 -1.45365,1.03973 -1.63784,-0.32494 -2.63364,-2.28388 -2.13786,-3.83025 0.18584,-0.57804 0.74546,-0.91364 1.31413,-0.91364 z m 5.99189,2.77295 c 0.54445,-10e-4 1.08487,0.13217 1.57096,0.43357 1.21269,0.73106 2.00491,1.96167 2.74453,3.13263 0.36263,0.72146 0.80073,1.58801 0.50333,2.40036 -0.37809,0.79693 -1.40142,0.9183 -2.14198,0.60152 -0.86979,-0.32927 -1.73627,-0.83268 -2.70372,-0.68523 -1.14029,0.0585 -2.12591,0.84622 -3.27266,0.81442 -0.95319,-0.006 -1.64096,-1.03272 -1.33739,-1.92443 0.24987,-1.23872 0.88841,-2.38114 1.66812,-3.36259 0.72188,-0.84225 1.85395,-1.41025 2.96881,-1.41025 z" style="opacity:1;fill:#c5a407;fill-opacity:1;fill-rule:evenodd;stroke:none;stroke-width:0.20457779;stroke-linecap:square;stroke-linejoin:miter;stroke-miterlimit:4;stroke-dasharray:none;stroke-dashoffset:0;stroke-opacity:1;paint-order:markers fill stroke"/>
</svg>
