<?xml version="1.0" encoding="UTF-8" standalone="no"?>
<!-- Created with Inkscape (http://www.inkscape.org/) -->

<svg
   xmlns:dc="http://purl.org/dc/elements/1.1/"
   xmlns:cc="http://creativecommons.org/ns#"
   xmlns:rdf="http://www.w3.org/1999/02/22-rdf-syntax-ns#"
   xmlns:svg="http://www.w3.org/2000/svg"
   xmlns="http://www.w3.org/2000/svg"
   xmlns:sodipodi="http://sodipodi.sourceforge.net/DTD/sodipodi-0.dtd"
   xmlns:inkscape="http://www.inkscape.org/namespaces/inkscape"
   width="32"
   height="32"
   viewBox="0 0 32 32"
   id="svg2"
   version="1.1"
   inkscape:version="0.91 r13725"
   sodipodi:docname="shesmu.svg"
   inkscape:export-filename="/home/amasella/logo.svg.png"
   inkscape:export-xdpi="45"
   inkscape:export-ydpi="45">
  <defs
     id="defs4" />
  <sodipodi:namedview
     id="base"
     pagecolor="#ffffff"
     bordercolor="#666666"
     borderopacity="1.0"
     inkscape:pageopacity="0.0"
     inkscape:pageshadow="2"
     inkscape:zoom="39.4375"
     inkscape:cx="15.974643"
     inkscape:cy="16"
     inkscape:document-units="px"
     inkscape:current-layer="layer1"
     showgrid="false"
     units="px"
     inkscape:window-width="2560"
     inkscape:window-height="1416"
     inkscape:window-x="0"
     inkscape:window-y="24"
     inkscape:window-maximized="1" />
  <metadata
     id="metadata7">
    <rdf:RDF>
      <cc:Work
         rdf:about="">
        <dc:format>image/svg+xml</dc:format>
        <dc:type
           rdf:resource="http://purl.org/dc/dcmitype/StillImage" />
        <dc:title></dc:title>
      </cc:Work>
    </rdf:RDF>
  </metadata>
  <g
     inkscape:label="Layer 1"
     inkscape:groupmode="layer"
     id="layer1"
     transform="translate(0,-1020.3622)">
    <g
       transform="matrix(0.03484386,0,0,0.03484386,-3.4486434,1028.4011)"
       id="layer1-5"
       inkscape:label="Layer 1" />
    <path
       id="path4138"
       style="fill:#b12012;fill-opacity:1;fill-rule:evenodd;stroke:none;stroke-width:1.22571266px;stroke-linecap:butt;stroke-linejoin:miter;stroke-opacity:1"
       d="m 16.284431,1036.8301 c -1.927888,0 -3.886009,0.9824 -5.13436,2.4389 -1.3483118,1.6972 -2.4528104,3.6725 -2.884914,5.8146 -0.5249546,1.542 0.6648396,3.3168 2.31318,3.3275 1.983045,0.055 3.687336,-1.3067 5.65923,-1.4079 1.672994,-0.255 3.171005,0.6153 4.675098,1.1847 1.280642,0.5478 3.050266,0.3378 3.704088,-1.0403 0.514289,-1.4048 -0.242694,-2.9027 -0.869786,-4.1503 -1.279017,-2.0249 -2.649254,-4.1531 -4.74633,-5.4173 -0.840568,-0.5212 -1.77468,-0.7518 -2.716206,-0.7499 z M 5.9219845,1032.035 c -0.9833978,0 -1.9505741,0.5806 -2.2719401,1.5802 -0.8573507,2.6741 0.864321,6.0609 3.696589,6.6228 1.1820447,0.2023 2.2206735,-0.7055 2.5137553,-1.7976 0.6211233,-2.3362 -0.6546397,-5.0488 -2.8136814,-6.1093 -0.3517486,-0.1972 -0.739915,-0.2928 -1.1247228,-0.2961 z m 20.2318885,-0.5118 c -2.311487,0.1377 -3.896199,2.4448 -4.122109,4.5983 -0.305901,1.5533 0.522165,3.6307 2.294435,3.7547 2.471193,-0.031 4.157039,-2.671 4.227083,-4.9431 0.156317,-1.5027 -0.72888,-3.3269 -2.399409,-3.4099 z m -14.93257,-7.1681 c -1.336167,0.033 -2.3770093,1.3878 -2.5887364,2.6618 -0.4463437,2.5238 0.701727,5.6597 3.3310534,6.4578 0.246282,0.053 0.501027,0.059 0.749815,0.021 1.777147,-0.296 2.529997,-2.2886 2.455645,-3.897 -0.05349,-2.1218 -1.155669,-4.5753 -3.359172,-5.1719 -0.201417,-0.053 -0.397724,-0.076 -0.588605,-0.071 z m 9.110255,-0.098 c -0.05294,0 -0.107253,0 -0.161206,0 -2.148885,0.371 -3.330426,2.6433 -3.501636,4.647 -0.25018,1.8183 0.551087,4.1553 2.547497,4.5628 0.289579,0.055 0.59047,0.029 0.873535,-0.046 2.404022,-0.8061 3.479847,-3.6533 3.132354,-6.0117 -0.101021,-1.523 -1.249228,-3.1795 -2.890539,-3.1585 z" />
    <path
       style="fill:#b2bbc0;fill-opacity:1;fill-rule:evenodd;stroke:none;stroke-width:1.22571266px;stroke-linecap:butt;stroke-linejoin:miter;stroke-opacity:1"
       d="m 3.3115772,1023.2397 24.1560848,22.7065 c 2.938469,2.7627 -0.03877,4.8821 -2.518143,2.517 l -6.014371,-5.6833 -3.789264,3.4624 c -4.864969,-6.0378 -10.9912055,-15.1765 -11.8343068,-23.0026 z"
       id="path4147" />
  </g>
</svg>
