<?xml version="1.0" encoding="UTF-8" standalone="no"?>
<svg xmlns="http://www.w3.org/2000/svg" version="1.1" viewBox="0 0 12.7 12.7" height="48" width="48">
  <ellipse style="opacity:1;fill:#04aa9d;fill-opacity:1;fill-rule:evenodd;stroke:none;stroke-width:0.06538724;stroke-linecap:square;stroke-linejoin:miter;stroke-miterlimit:4;stroke-dasharray:none;stroke-dashoffset:0;stroke-opacity:1;paint-order:markers fill stroke" cx="9.1637697" cy="2.0843458" rx="4.8351717" ry="6.1151018" transform="matrix(0.83602466,0.54869187,-0.59837216,0.80121829,0,0)"/>
  <ellipse ry="0.93318701" rx="2.1310811" cy="-2.1277044" cx="9.2539062" style="opacity:1;fill:#b96962;fill-opacity:1;fill-rule:evenodd;stroke:none;stroke-width:0.01695781;stroke-linecap:square;stroke-linejoin:miter;stroke-miterlimit:4;stroke-dasharray:none;stroke-dashoffset:0;stroke-opacity:1;paint-order:markers fill stroke" transform="matrix(0.83602466,0.54869187,-0.59837216,0.80121829,0,0)"/>
  <path style="opacity:1;fill:#037b72;fill-opacity:1;fill-rule:evenodd;stroke:none;stroke-width:0.12685712;stroke-linecap:square;stroke-linejoin:miter;stroke-miterlimit:4;stroke-dasharray:none;stroke-dashoffset:0;stroke-opacity:1;paint-order:markers fill stroke" d="M 3.5267282,5.50138 4.1962947,6.17095 3.5267288,6.84051 3.918169,7.23196 4.5877348,6.56239 5.2573013,7.23196 5.6487398,6.84052 4.9791733,6.17095 5.6487392,5.50139 5.257299,5.10994 4.5877332,5.77951 3.9181667,5.10994 Z"/>
  <path d="M 6.4424892,5.50137 7.1120557,6.17094 6.4424898,6.8405 6.83393,7.23196 7.5034958,6.56238 8.1730623,7.23196 8.5645008,6.84052 7.8949343,6.17094 8.5645002,5.50139 8.17306,5.10993 7.5034942,5.77951 6.8339277,5.10993 Z" style="opacity:1;fill:#037b72;fill-opacity:1;fill-rule:evenodd;stroke:none;stroke-width:0.12685712;stroke-linecap:square;stroke-linejoin:miter;stroke-miterlimit:4;stroke-dasharray:none;stroke-dashoffset:0;stroke-opacity:1;paint-order:markers fill stroke"/>
  <path style="fill:#037b72;fill-opacity:1;fill-rule:evenodd;stroke:none;stroke-width:0.26458332px;stroke-linecap:butt;stroke-linejoin:miter;stroke-opacity:1" d="M 3.7278379,9.01521 C 5.4994271,8.74659 6.8734528,9.21464 8.0603899,9.57745 7.0137693,8.81708 5.195408,8.44258 3.7278379,9.01521 Z"/>
</svg>
