<?xml version="1.0" encoding="UTF-8" standalone="no"?>
<!DOCTYPE svg PUBLIC "-//W3C//DTD SVG 1.1//EN" "http://www.w3.org/Graphics/SVG/1.1/DTD/svg11.dtd">
<svg xmlns:svg="http://www.w3.org/2000/svg" xmlns="http://www.w3.org/2000/svg" width="115.18446mm" height="91.755791mm" viewBox="0 0 115.18446 91.755791" version="1.1" preserveAspectRatio="xMidYMid">
  <path style="opacity: 1; fill: rgb(6, 174, 213); fill-opacity: 1; fill-rule: evenodd; stroke: none; stroke-width: 2.68363; stroke-linecap: square; stroke-linejoin: miter; stroke-miterlimit: 4; stroke-dasharray: none; stroke-dashoffset: 0; stroke-opacity: 1; paint-order: markers;" d="m 110.1543,200.68359 v 24.6211 h 22.17773 V 354.78516 H 110.1543 v 14.52148 h 22.17773 v 136.5957 h 24.62109 V 369.30664 H 415.9043 v 136.5957 h 24.62109 v -136.5957 h 20.24219 V 354.78516 H 440.52539 V 225.30469 h 20.24219 v -24.6211 z m 46.79882,24.6211 H 415.9043 V 354.78516 H 156.95312 Z" transform="matrix(0.2645833194255829 0 0 0.2645833194255829 -16.726953506469712 -52.09753417968749)"/>
  <rect style="opacity: 1; fill: rgb(6, 174, 213); fill-opacity: 1; fill-rule: evenodd; stroke: none; stroke-width: 0.987778; stroke-linecap: square; stroke-linejoin: miter; stroke-miterlimit: 4; stroke-dasharray: none; stroke-dashoffset: 0; stroke-opacity: 1; paint-order: markers;" width="4.0090427" height="37.4177" x="26.727" y="76.7699" transform="matrix(1 0 0 0.999212 -16.727 -52.0975)">
    <animate attributeType="auto" attributeName="height" values="37.417732;7.417732;7.417732;37.417732" calcMode="spline" keyTimes="0;0.6;0.8;1" keySplines="0 0 1 1;0 0 1 1;0 0 1 1" dur="10s" begin="0s" repeatCount="indefinite" additive="replace" accumulate="none" fill="freeze"/>
    <animate attributeType="auto" attributeName="y" values="76.769913;91.769913;91.769913;76.769913" calcMode="spline" keyTimes="0;0.6;0.8;1" keySplines="0 0 1 1;0 0 1 1;0 0 1 1" dur="10s" begin="0s" repeatCount="indefinite" additive="replace" accumulate="none" fill="freeze"/>
  </rect>
  <path style="fill: rgb(6, 174, 213); fill-opacity: 1; fill-rule: evenodd; stroke: none; stroke-width: 0.264583px; stroke-linecap: butt; stroke-linejoin: miter; stroke-opacity: 1;" d="M 48.643053 95.746045 C 48.643053 95.746045 60.135641 82.6767 76.439082 82.943969 C 92.742522 83.211238 104.23510999999999 95.746045 104.23510999999999 95.746045 C 104.23510999999999 95.746045 93.50632499999999 110.21714999999999 76.43908199999998 109.91132999999999 C 59.371838 109.60551 48.643053 95.746045 48.643053 95.746045 Z" transform="matrix(1 0 0 0.999996 -16.727 -52.0975)">
    <animate attributeType="auto" attributeName="d" values="M 48.643053 95.746045 C 48.643053 95.746045 60.135641 82.6767 76.439082 82.943969 C 92.742522 83.211238 104.23510999999999 95.746045 104.23510999999999 95.746045 C 104.23510999999999 95.746045 93.50632499999999 110.21714999999999 76.43908199999998 109.91132999999999 C 59.371838 109.60551 48.643053 95.746045 48.643053 95.746045 Z;m 48.643053,95.746045 c 0,0 11.492588,-7.456685 27.796029,-7.189416 16.30344,0.267269 27.796028,7.189416 27.796028,7.189416 0,0 -10.728785,8.591175 -27.796028,8.285355 -17.067244,-0.30582 -27.796029,-8.285355 -27.796029,-8.285355 z;m 48.643053,95.746045 c 0,0 11.492588,-7.456685 27.796029,-7.189416 16.30344,0.267269 27.796028,7.189416 27.796028,7.189416 0,0 -10.728785,8.591175 -27.796028,8.285355 -17.067244,-0.30582 -27.796029,-8.285355 -27.796029,-8.285355 z;M 48.643053 95.746045 C 48.643053 95.746045 60.135641 82.6767 76.439082 82.943969 C 92.742522 83.211238 104.23510999999999 95.746045 104.23510999999999 95.746045 C 104.23510999999999 95.746045 93.50632499999999 110.21714999999999 76.43908199999998 109.91132999999999 C 59.371838 109.60551 48.643053 95.746045 48.643053 95.746045 Z" calcMode="spline" keyTimes="0;0.6;0.8;1" keySplines=".25 0 .75 1;.25 0 .75 1;.25 0 .75 1" dur="10s" begin="0s" repeatCount="indefinite" additive="replace" accumulate="none" fill="freeze"/>
  </path>
  <path style="fill: rgb(6, 174, 213); fill-opacity: 1; fill-rule: evenodd; stroke: none; stroke-width: 0.264583px; stroke-linecap: butt; stroke-linejoin: miter; stroke-opacity: 1;" d="M 61.471991 110.44587 C 61.471991 110.44587 66.282843 120.73573999999999 61.471991 120.60211 C 56.661139000000006 120.46848 61.471991 110.44587 61.471991 110.44587 Z" transform="matrix(1 0 0 1 -16.726953506469712 -52.09753417968749)">
    <animate attributeType="auto" attributeName="fill-opacity" values="0;0;1;1;0" calcMode="spline" keyTimes="0;0.2;0.8;0.9;1" keySplines=".25 0 .75 1;.25 0 .75 1;.25 0 .75 1;.25 0 .75 1" dur="10s" begin="0s" repeatCount="indefinite" additive="replace" accumulate="none" fill="freeze"/>
  </path>
  <path d="m 76.30545,115.79126 c 0,0 4.810852,10.28987 0,10.15624 -4.810852,-0.13363 0,-10.15624 0,-10.15624 z" style="fill: rgb(6, 174, 213); fill-opacity: 1; fill-rule: evenodd; stroke: none; stroke-width: 0.264583px; stroke-linecap: butt; stroke-linejoin: miter; stroke-opacity: 1;" transform="matrix(1 0 0 1 -16.726953506469712 -52.09753417968749)">
    <animate attributeType="auto" attributeName="fill-opacity" values="0;0;1;0" calcMode="spline" keyTimes="0;0.6;0.9;1" keySplines=".5 0 .5 1;.5 0 .5 1;.5 0 .5 1" dur="10s" begin="0s" repeatCount="indefinite" additive="replace" accumulate="none" fill="freeze"/>
  </path>
  <path style="fill: rgb(6, 174, 213); fill-opacity: 1; fill-rule: evenodd; stroke: none; stroke-width: 0.264583px; stroke-linecap: butt; stroke-linejoin: miter; stroke-opacity: 1;" d="m 68.420999,121.00302 c 0,0 4.810852,10.28987 0,10.15624 -4.810852,-0.13363 0,-10.15624 0,-10.15624 z" transform="matrix(1 0 0 1 -16.726953506469712 -52.09753417968749)">
    <animate attributeType="auto" attributeName="fill-opacity" values="0;0;1;1;0" calcMode="spline" keyTimes="0;0.09999999999999998;0.5;0.7;1" keySplines=".5 0 .5 1;.5 0 .5 1;.5 0 .5 1;.5 0 .5 1" dur="10s" begin="0s" repeatCount="indefinite" additive="replace" accumulate="none" fill="freeze"/>
  </path>
  <path d="m 88.332579,112.18312 c 0,0 4.810852,10.28987 0,10.15624 -4.810852,-0.13363 0,-10.15624 0,-10.15624 z" style="fill: rgb(6, 174, 213); fill-opacity: 1; fill-rule: evenodd; stroke: none; stroke-width: 0.264583px; stroke-linecap: butt; stroke-linejoin: miter; stroke-opacity: 1;" transform="matrix(1 0 0 1 -16.726953506469712 -52.09753417968749)">
    <animate attributeType="auto" attributeName="fill-opacity" values="0;0;1;0" calcMode="spline" keyTimes="0;0.8;0.9;1" keySplines="0 0 1 1;0 0 1 1;0 0 1 1" dur="10s" begin="0s" repeatCount="indefinite" additive="replace" accumulate="none" fill="freeze"/>
  </path>
  <path style="fill: rgb(6, 174, 213); fill-rule: evenodd; stroke: none; stroke-width: 0.264583px; stroke-linecap: butt; stroke-linejoin: miter; stroke-opacity: 1;" d="m 82.18538,119.13213 c 0,0 4.810852,10.28987 0,10.15624 -4.810852,-0.13363 0,-10.15624 0,-10.15624 z" transform="matrix(1 0 0 1 -15.312740445137024 -51.92075751721859)">
    <animate attributeType="auto" attributeName="fill-opacity" values="0;1;1;0" calcMode="spline" keyTimes="0;0.4;0.6;1" keySplines=".25 0 .75 1;.25 0 .75 1;.25 0 .75 1" dur="10s" begin="0s" repeatCount="indefinite" additive="replace" accumulate="none" fill="freeze"/>
  </path>
  <path d="m 94.346144,121.40392 c 0,0 4.810852,10.28987 0,10.15624 -4.810852,-0.13363 0,-10.15624 0,-10.15624 z" style="fill: rgb(6, 174, 213); fill-opacity: 1; fill-rule: evenodd; stroke: none; stroke-width: 0.264583px; stroke-linecap: butt; stroke-linejoin: miter; stroke-opacity: 1;" transform="matrix(1 0 0 1 -16.726953506469712 -51.74398076534271)">
    <animate attributeType="auto" attributeName="fill-opacity" values="0;0;1;1;0" calcMode="spline" keyTimes="0;0.3;0.6;0.8;1" keySplines=".25 0 .75 1;.25 0 .75 1;.25 0 .75 1;.25 0 .75 1" dur="10s" begin="0s" repeatCount="indefinite" additive="replace" accumulate="none" fill="freeze"/>
  </path>
  <path style="fill: rgb(6, 174, 213); fill-opacity: 1; fill-rule: evenodd; stroke: none; stroke-width: 0.264583px; stroke-linecap: butt; stroke-linejoin: miter; stroke-opacity: 1;" d="m 97.286109,108.44135 c 0,0 4.810851,10.28987 0,10.15624 -4.810852,-0.13363 0,-10.15624 0,-10.15624 z" transform="matrix(1 0 0 1 -16.726953506469712 -52.09753417968749)">
    <animate attributeType="auto" attributeName="fill-opacity" values="0;0;1;0" calcMode="spline" keyTimes="0;0.4;0.7;1" keySplines="0 0 1 1;0 0 1 1;0 0 1 1" dur="10s" begin="0s" repeatCount="indefinite" additive="replace" accumulate="none" fill="freeze"/>
  </path>
  <path d="m 60.937453,123.00754 c 0,0 4.810851,10.28987 0,10.15624 -4.810852,-0.13363 0,-10.15624 0,-10.15624 z" style="fill: rgb(6, 174, 213); fill-opacity: 1; fill-rule: evenodd; stroke: none; stroke-width: 0.264583px; stroke-linecap: butt; stroke-linejoin: miter; stroke-opacity: 1;" transform="matrix(1 0 0 1 -16.726953506469712 -52.09753417968749)">
    <animate attributeType="auto" attributeName="fill-opacity" values="0;0;1;0" calcMode="spline" keyTimes="0;0.7;0.8;1" keySplines=".25 0 .75 1;.25 0 .75 1;.25 0 .75 1" dur="10s" begin="0s" repeatCount="indefinite" additive="replace" accumulate="none" fill="freeze"/>
  </path>
  <path style="fill: rgb(6, 174, 213); fill-opacity: 1; fill-rule: evenodd; stroke: none; stroke-width: 0.264583px; stroke-linecap: butt; stroke-linejoin: miter; stroke-opacity: 1;" d="m 71.895503,111.91585 c 0,0 4.810852,10.28987 0,10.15624 -4.810852,-0.13363 0,-10.15624 0,-10.15624 z" transform="matrix(1 0 0 1 -16.726953506469712 -52.09753417968749)">
    <animate attributeType="auto" attributeName="fill-opacity" values="0;0;1;0" calcMode="spline" keyTimes="0;0.4;0.6;1" keySplines=".5 0 .5 1;.5 0 .5 1;.5 0 .5 1" dur="10s" begin="0s" repeatCount="indefinite" additive="replace" accumulate="none" fill="freeze"/>
  </path>
</svg>
