<?xml version="1.0" encoding="UTF-8" standalone="no"?>
<svg
   xmlns="http://www.w3.org/2000/svg"
   width="32"
   height="32"
   viewBox="0 0 32 32"
   id="svg2"
   version="1.1">
  <path
     d="m 16.284431,16.4679 c -1.927888,0 -3.886009,0.9824 -5.13436,2.4389 -1.3483118,1.6972 -2.4528104,3.6725 -2.884914,5.8146 -0.5249546,1.542 0.6648396,3.3168 2.31318,3.3275 1.983045,0.055 3.687336,-1.3067 5.65923,-1.4079 1.672994,-0.255 3.171005,0.6153 4.675098,1.1847 1.280642,0.5478 3.050266,0.3378 3.704088,-1.0403 0.514289,-1.4048 -0.242694,-2.9027 -0.869786,-4.1503 -1.279017,-2.0249 -2.649254,-4.1531 -4.74633,-5.4173 -0.840568,-0.5212 -1.77468,-0.7518 -2.716206,-0.7499 z M 5.9219845,11.6728 c -0.9833978,0 -1.9505741,0.5806 -2.2719401,1.5802 -0.8573507,2.6741 0.864321,6.0609 3.696589,6.6228 1.1820447,0.2023 2.2206735,-0.7055 2.5137553,-1.7976 C 10.481512,15.742 9.205749,13.0294 7.0467073,11.9689 6.6949587,11.7717 6.3067923,11.6761 5.9219845,11.6728 Z M 26.153873,11.161 c -2.311487,0.1377 -3.896199,2.4448 -4.122109,4.5983 -0.305901,1.5533 0.522165,3.6307 2.294435,3.7547 2.471193,-0.031 4.157039,-2.671 4.227083,-4.9431 0.156317,-1.5027 -0.72888,-3.3269 -2.399409,-3.4099 z M 11.221303,3.9929 c -1.336167,0.033 -2.3770093,1.3878 -2.5887364,2.6618 -0.4463437,2.5238 0.701727,5.6597 3.3310534,6.4578 0.246282,0.053 0.501027,0.059 0.749815,0.021 1.777147,-0.296 2.529997,-2.2886 2.455645,-3.897 C 15.11559,7.1147 14.013411,4.6612 11.809908,4.0646 11.608491,4.0116 11.412184,3.9886 11.221303,3.9936 Z m 9.110255,-0.098 c -0.05294,0 -0.107253,0 -0.161206,0 -2.148885,0.371 -3.330426,2.6433 -3.501636,4.647 -0.25018,1.8183 0.551087,4.1553 2.547497,4.5628 0.289579,0.055 0.59047,0.029 0.873535,-0.046 C 22.49377,12.2526 23.569595,9.4054 23.222102,7.047 23.121081,5.524 21.972874,3.8675 20.331563,3.8885 Z"
     style="fill:#e0493b;fill-opacity:1;fill-rule:evenodd;stroke:none;stroke-width:1.22571266px;stroke-linecap:butt;stroke-linejoin:miter;stroke-opacity:1"
     />
  <path
     d="M 3.3115772,2.8775 27.467662,25.584 c 2.938469,2.7627 -0.03877,4.8821 -2.518143,2.517 l -6.014371,-5.6833 -3.789264,3.4624 C 10.280915,19.8423 4.1546785,10.7036 3.3115772,2.8775 Z"
     style="fill:#a0b1b5;fill-opacity:1;fill-rule:evenodd;stroke:#1e2526;stroke-width:0.2px;stroke-linecap:butt;stroke-linejoin:miter;stroke-opacity:1" />
</svg>
